<svg xmlns="http://www.w3.org/2000/svg" version="1.1" xmlns:xlink="http://www.w3.org/1999/xlink" xmlns:svgjs="http://svgjs.dev/svgjs" width="2000" height="1500" viewBox="0 0 2000 1500"><rect width="2000" height="1500" fill="#ffffff"></rect><g transform="matrix(0.75,0,0,0.75,250.36532951289405,219.80465587044534)"><svg viewBox="0 0 349 247" data-background-color="#ffffff" preserveAspectRatio="xMidYMid meet" height="1415" width="2000" xmlns="http://www.w3.org/2000/svg" xmlns:xlink="http://www.w3.org/1999/xlink"><g id="tight-bounds" transform="matrix(1,0,0,1,-0.08500000000000796,-0.09999999999999432)"><svg viewBox="0 0 349.17 247.2" height="247.2" width="349.17"><g><svg viewBox="0 0 349.17 247.2" height="247.2" width="349.17"><g><svg viewBox="0 0 349.17 247.2" height="247.2" width="349.17"><g id="textblocktransform"><svg viewBox="0 0 349.17 247.2" height="247.2" width="349.17" id="textblock"><g><svg viewBox="0 0 349.17 247.2" height="247.2" width="349.17"><g transform="matrix(1,0,0,1,0,0)"><svg width="349.17" viewBox="1.75 -35.25 50.85 36" height="247.2" data-palette-color="#000000"><path d="M14.45-35.25Q20.55-35.25 23.85-30.8 27.15-26.35 27.15-17.3L27.15-17.3Q27.15-8.35 23.85-3.8 20.55 0.75 14.45 0.75L14.45 0.75Q8.4 0.75 5.08-3.75 1.75-8.25 1.75-17.25L1.75-17.25Q1.75-26.15 5.08-30.7 8.4-35.25 14.45-35.25L14.45-35.25ZM14.45-30.45Q11.4-30.45 9.93-27.4 8.45-24.35 8.45-17.25L8.45-17.25Q8.45-10.1 9.95-7.13 11.45-4.15 14.45-4.15L14.45-4.15Q17.55-4.15 19.03-7.1 20.5-10.05 20.5-17.3L20.5-17.3Q20.5-24.4 19-27.43 17.5-30.45 14.45-30.45L14.45-30.45ZM39.8-34.55Q46.05-34.55 49.32-31.78 52.6-29 52.6-23.6L52.6-23.6Q52.6-17.85 49.37-15 46.15-12.15 40.25-12.15L40.25-12.15 38.25-12.15 38.25 0 31.9 0 31.9-34.55 39.8-34.55ZM39.9-16.9Q43.15-16.9 44.6-18.4 46.05-19.9 46.05-23.55L46.05-23.55Q46.05-26.85 44.6-28.35 43.15-29.85 39.95-29.85L39.95-29.85 38.25-29.85 38.25-16.9 39.9-16.9Z" opacity="1" transform="matrix(1,0,0,1,0,0)" fill="#000000" class="wordmark-text-0" data-fill-palette-color="primary" id="text-0"></path></svg></g></svg></g></svg></g></svg></g><g></g></svg></g><defs></defs></svg><rect width="349.17" height="247.2" fill="none" stroke="none" visibility="hidden"></rect></g></svg></g></svg>